# xmcd CD database file
#
# Track frame offsets:
#	150
#	27971
#	57531
#	73920
#	82207
#	105563
#	133299
#	149574
#	170507
#	182632
#
# Disc length: 2617 seconds
#
# Revision: 0
# Processed by: cddbd v1.5.2PL0 Copyright (c) Steve Scherf et al.
# Submitted via: CDex 1.70beta2
#
DISCID=9d0a370a
DTITLE=Manbafro - Night Time Cafe 4 -AFRO JAZZ TRIO-
DYEAR=2010
DGENRE=Jazz
TTITLE0=Afro
TTITLE1=Mozambique
TTITLE2=Tahira
TTITLE3=Without You
TTITLE4=Tasty Cabo Verde
TTITLE5=Mighty Afro Cha-Cha-Cha
TTITLE6=Remember You At Night
TTITLE7=Mamana Afrika Don't Cry
TTITLE8=Mambaflo
TTITLE9=Velda Rumba
EXTD=YEAR: 2010
EXTT0=
EXTT1=
EXTT2=
EXTT3=
EXTT4=
EXTT5=
EXTT6=
EXTT7=
EXTT8=
EXTT9=
PLAYORDER=
